<?xml version="1.0" encoding="UTF-8"?>
<svg id="Layer_2" data-name="Layer 2" xmlns="http://www.w3.org/2000/svg" viewBox="0 0 191.5 182.5">
  <defs>
    <style>
      .cls-1 {
        fill: #fff;
      }

      .cls-1, .cls-2, .cls-3 {
        stroke: #1e1d57;
        stroke-width: 4px;
      }

      .cls-2, .cls-4 {
        fill: none;
      }

      .cls-3 {
        fill: #1e1d57;
      }
    </style>
  </defs>
  <g id="Agent">
    <rect id="Rectangle_1" data-name="Rectangle 1" class="cls-2" x="2" y="163.5" width="187.5" height="17" rx="8.5" ry="8.5"/>
    <g id="Shape_Layer_2" data-name="Shape Layer 2">
      <rect id="Rectangle_2" data-name="Rectangle 2" class="cls-4" x="26.5" y="100" width="68.5" height="59.5"/>
      <path id="Shape_2" data-name="Shape 2" class="cls-2" d="M43.5,96s-13.5.5-21,5-12,8-12.5,13.5-.5,34.5-.5,34.5c0,0,3.5,11.5,11,12.5s39.5,0,39.5,0h16s4-1.93,4-9-7-6.5-7-6.5l-42-.5v-18"/>
      <line id="Shape_3" data-name="Shape 3" class="cls-2" x1="64.5" y1="148.5" x2="64.5" y2="159"/>
      <path id="Rectangle_1-2" data-name="Rectangle 1" class="cls-2" d="M73.5,70.5v30.5s-4,3.5-12.5,4.5c-6.14.72-15-4.5-15-4.5v-30.5h27.5Z"/>
      <ellipse id="Ellipse_2" data-name="Ellipse 2" class="cls-2" cx="27.5" cy="58.5" rx="9.5" ry="10"/>
      <ellipse id="Ellipse_3" data-name="Ellipse 3" class="cls-2" cx="90.5" cy="58.5" rx="9.5" ry="10"/>
      <path id="Ellipse_1" data-name="Ellipse 1" class="cls-1" d="M61.5,17.5c13.48,0,27.47,17.27,27.47,17.27,0,0,.53,19.56.53,22.48,0,20.3-12.76,36.75-28.5,36.75s-28.5-16.45-28.5-36.75c0-2.85.96-22.3.96-22.3,0,0,14.51-17.45,28.04-17.45Z"/>
      <path id="Shape_4" data-name="Shape 4" class="cls-2" d="M72,95.5s21.5,0,30,8c5.66,5.33,8,12.5,8.5,22s0,36,0,36h-17.5v-38"/>
      <path id="Shape_5" data-name="Shape 5" class="cls-1" d="M61,2C14,2,17,50.5,23.5,47s19-9.5,25-17,12.5-16,13-12c.5,4,9,25.5,20,29.5,11,4,19,6.5,19.5.5S102.05,2,61,2Z"/>
      <path id="Shape_6" data-name="Shape 6" class="cls-2" d="M26.5,69s-3,8.5,4,10.5,25-2,25-2"/>
      <ellipse id="Ellipse_4" data-name="Ellipse 4" class="cls-2" cx="59" cy="77" rx="6" ry="4"/>
    </g>
    <g id="Computer">
      <rect id="Rectangle_1-3" data-name="Rectangle 1" class="cls-3" x="90.5" y="80" width="94" height="67.5" rx="10" ry="10"/>
      <circle id="Ellipse_1-2" data-name="Ellipse 1" class="cls-1" cx="136.12" cy="109.88" r="12"/>
      <path id="Rectangle_2-2" data-name="Rectangle 2" class="cls-1" d="M148.25,138l1.5,21.62c0,3.87-3.13,3.5-7,3.5h-10.75c-3.87,0-7,.37-7-3.5l1.5-21.62c0-3.87,3.13-7,7-7h7.75c3.87,0,7,3.13,7,7Z"/>
    </g>
  </g>
</svg>